<svg width="107" height="120" viewBox="0 0 107 120" fill="none" xmlns="http://www.w3.org/2000/svg">
<g clip-path="url(#clip0_246_1603)">
<g opacity="0.43">
<path d="M53.2979 10L96.5942 34.999L96.5958 84.9942L53.2995 59.9952L53.2979 10Z" fill="#FF8A1F"/>
<path d="M10.0016 34.999L53.2979 10L53.2963 59.9952L10 84.9942L10.0016 34.999Z" fill="url(#paint0_linear_246_1603)"/>
<path d="M53.2979 59.9927L96.5958 84.9889L53.2979 109.985L10 84.9889L53.2979 59.9927Z" fill="url(#paint1_linear_246_1603)"/>
<path d="M10 34.9907L53.2963 59.9897L53.2979 109.985L10.0016 84.9859L10 34.9907Z" fill="url(#paint2_linear_246_1603)"/>
<path d="M53.2979 59.9897L96.5942 34.9908L96.5927 84.986L53.2963 109.985L53.2979 59.9897Z" fill="url(#paint3_linear_246_1603)"/>
<path d="M10 34.9961L53.2979 10L96.5958 34.9961L53.2979 59.9927L10 34.9961Z" fill="url(#paint4_linear_246_1603)"/>
<path d="M53.2979 10L96.5942 34.999L96.5958 84.9942L53.2995 59.9952L53.2979 10ZM53.2979 10L10.0016 34.999L10 84.9942L53.2963 59.9952L53.2979 10ZM53.2979 59.9927L96.5958 34.9961L53.2979 10L10 34.9961L53.2979 59.9927ZM53.2979 109.985L10 84.9889L53.2979 59.9927L96.5958 84.9889L53.2979 109.985ZM53.2979 109.985L53.2963 59.9897L10 34.9907L10.0016 84.9859L53.2979 109.985ZM53.2979 59.9897L96.5942 34.9908L96.5927 84.986L53.2963 109.985L53.2979 59.9897Z" stroke="white" stroke-opacity="0.74" stroke-width="0.1"/>
</g>
<path d="M10 85L52.7368 60L97 85L52.7368 110L10 85Z" fill="white" fill-opacity="0.13"/>
<g opacity="0.4">
<path d="M53.4369 32L77.873 46.1092L77.8739 74.326L53.4378 60.2168L53.4369 32Z" fill="#6E6E6E" fill-opacity="0.2"/>
<path d="M29.0009 46.1092L53.4369 32L53.4361 60.2169L29 74.3261L29.0009 46.1092Z" fill="#5A5A5A" fill-opacity="0.2"/>
<path d="M53.4369 60.2154L77.8739 74.3231L53.4369 88.4307L29 74.3231L53.4369 60.2154Z" fill="#AAAAAA" fill-opacity="0.2"/>
<path d="M29 46.1045L53.4361 60.2137L53.4369 88.4307L29.0009 74.3214L29 46.1045Z" fill="#BEBEBE" fill-opacity="0.2"/>
<path d="M53.4369 60.2138L77.873 46.1046L77.8721 74.3214L53.436 88.4306L53.4369 60.2138Z" fill="#969696" fill-opacity="0.2"/>
<path d="M29 46.1076L53.4369 32L77.8739 46.1076L53.4369 60.2154L29 46.1076Z" fill="#828282" fill-opacity="0.2"/>
<path d="M53.4369 32L77.873 46.1092L77.8739 74.326L53.4378 60.2168L53.4369 32ZM53.4369 32L29.0009 46.1092L29 74.3261L53.4361 60.2169L53.4369 32ZM53.4369 60.2154L77.8739 46.1076L53.4369 32L29 46.1076L53.4369 60.2154ZM53.4369 88.4307L29 74.3231L53.4369 60.2154L77.8739 74.3231L53.4369 88.4307ZM53.4369 88.4307L53.4361 60.2137L29 46.1045L29.0009 74.3214L53.4369 88.4307ZM53.4369 60.2138L77.873 46.1046L77.8721 74.3214L53.436 88.4306L53.4369 60.2138Z" stroke="white" stroke-width="0.5"/>
<g style="mix-blend-mode:hard-light">
<path d="M53.4369 32L77.873 46.1092L77.8739 74.326L53.4378 60.2168L53.4369 32Z" fill="url(#paint5_linear_246_1603)"/>
<path d="M29.0009 46.1092L53.4369 32L53.4361 60.2169L29 74.3261L29.0009 46.1092Z" fill="url(#paint6_linear_246_1603)"/>
<path d="M53.4369 60.2154L77.8739 74.3231L53.4369 88.4307L29 74.3231L53.4369 60.2154Z" fill="url(#paint7_linear_246_1603)"/>
<path d="M29 46.1045L53.4361 60.2137L53.4369 88.4307L29.0009 74.3214L29 46.1045Z" fill="url(#paint8_linear_246_1603)"/>
<path d="M53.4369 60.2138L77.873 46.1046L77.8721 74.3214L53.436 88.4306L53.4369 60.2138Z" fill="url(#paint9_linear_246_1603)"/>
<path d="M29 46.1076L53.4369 32L77.8739 46.1076L53.4369 60.2154L29 46.1076Z" fill="url(#paint10_linear_246_1603)"/>
<path d="M53.4369 32L77.873 46.1092L77.8739 74.326L53.4378 60.2168L53.4369 32ZM53.4369 32L29.0009 46.1092L29 74.3261L53.4361 60.2169L53.4369 32ZM53.4369 60.2154L77.8739 46.1076L53.4369 32L29 46.1076L53.4369 60.2154ZM53.4369 88.4307L29 74.3231L53.4369 60.2154L77.8739 74.3231L53.4369 88.4307ZM53.4369 88.4307L53.4361 60.2137L29 46.1045L29.0009 74.3214L53.4369 88.4307ZM53.4369 60.2138L77.873 46.1046L77.8721 74.3214L53.436 88.4306L53.4369 60.2138Z" stroke="white" stroke-width="0.5"/>
</g>
</g>
<g filter="url(#filter3_f_246_1603)">
<ellipse cx="53.5" cy="50" rx="17.5" ry="13" fill="white" fill-opacity="0.55"/>
</g>
<path opacity="0.44" d="M13 41L50 62.3414L49.5 73.4961L19.1532 55.9961V76.4961L46 91.9961V102.549L13 83.4961V41Z" fill="#FE7412"/>
<path opacity="0.44" d="M93.373 41L57 62V75.3923L72 67.7735V96.5L81 90.8923V62.7735L93.373 55.5V41Z" fill="#FF7911"/>
</g>
<defs>
<filter id="filter3_f_246_1603" x="19.1" y="20.1" width="68.8" height="59.8" filterUnits="userSpaceOnUse" color-interpolation-filters="sRGB">
<feFlood flood-opacity="0" result="BackgroundImageFix"/>
<feBlend mode="normal" in="SourceGraphic" in2="BackgroundImageFix" result="shape"/>
<feGaussianBlur stdDeviation="8.45" result="effect1_foregroundBlur_246_1603"/>
</filter>
<linearGradient id="paint0_linear_246_1603" x1="53.2979" y1="10" x2="53.2979" y2="109.985" gradientUnits="userSpaceOnUse">
<stop offset="0.6875" stop-color="#FF8F1A"/>
<stop offset="1" stop-color="#E0C5A8" stop-opacity="0.945098"/>
</linearGradient>
<linearGradient id="paint1_linear_246_1603" x1="53.2979" y1="10" x2="53.2979" y2="109.985" gradientUnits="userSpaceOnUse">
<stop offset="0.6875" stop-color="#FF8F1A"/>
<stop offset="1" stop-color="#E0C5A8" stop-opacity="0.945098"/>
</linearGradient>
<linearGradient id="paint2_linear_246_1603" x1="53.2979" y1="10" x2="53.2979" y2="109.985" gradientUnits="userSpaceOnUse">
<stop offset="0.6875" stop-color="#FF8F1A"/>
<stop offset="1" stop-color="#E0C5A8" stop-opacity="0.945098"/>
</linearGradient>
<linearGradient id="paint3_linear_246_1603" x1="53.2979" y1="10" x2="53.2979" y2="109.985" gradientUnits="userSpaceOnUse">
<stop offset="0.6875" stop-color="#FF8F1A"/>
<stop offset="1" stop-color="#E0C5A8" stop-opacity="0.945098"/>
</linearGradient>
<linearGradient id="paint4_linear_246_1603" x1="53.2979" y1="10" x2="53.2979" y2="109.985" gradientUnits="userSpaceOnUse">
<stop offset="0.230769" stop-color="#FF8F1A"/>
<stop offset="0.591346" stop-color="#FFFEFD"/>
</linearGradient>
<linearGradient id="paint5_linear_246_1603" x1="53.5" y1="42" x2="53.5" y2="94.9999" gradientUnits="userSpaceOnUse">
<stop stop-color="#F86B39"/>
<stop offset="0.307467" stop-color="#FFB196"/>
<stop offset="0.871674" stop-color="#FFB196"/>
<stop offset="1" stop-color="white"/>
</linearGradient>
<linearGradient id="paint6_linear_246_1603" x1="53.5" y1="42" x2="53.5" y2="94.9999" gradientUnits="userSpaceOnUse">
<stop stop-color="#F86B39"/>
<stop offset="0.307467" stop-color="#FFB196"/>
<stop offset="0.871674" stop-color="#FFB196"/>
<stop offset="1" stop-color="white"/>
</linearGradient>
<linearGradient id="paint7_linear_246_1603" x1="53.5" y1="42" x2="53.5" y2="94.9999" gradientUnits="userSpaceOnUse">
<stop stop-color="#F86B39"/>
<stop offset="0.307467" stop-color="#FFB196"/>
<stop offset="0.871674" stop-color="#FFB196"/>
<stop offset="1" stop-color="white"/>
</linearGradient>
<linearGradient id="paint8_linear_246_1603" x1="53.5" y1="42" x2="53.5" y2="94.9999" gradientUnits="userSpaceOnUse">
<stop stop-color="#F86B39"/>
<stop offset="0.307467" stop-color="#FFB196"/>
<stop offset="0.871674" stop-color="#FFB196"/>
<stop offset="1" stop-color="white"/>
</linearGradient>
<linearGradient id="paint9_linear_246_1603" x1="53.5" y1="42" x2="53.5" y2="94.9999" gradientUnits="userSpaceOnUse">
<stop stop-color="#F86B39"/>
<stop offset="0.307467" stop-color="#FFB196"/>
<stop offset="0.871674" stop-color="#FFB196"/>
<stop offset="1" stop-color="white"/>
</linearGradient>
<linearGradient id="paint10_linear_246_1603" x1="53.5" y1="42" x2="53.5" y2="94.9999" gradientUnits="userSpaceOnUse">
<stop stop-color="#F86B39"/>
<stop offset="0.307467" stop-color="#FFB196"/>
<stop offset="0.871674" stop-color="#FFB196"/>
<stop offset="1" stop-color="white"/>
</linearGradient>
<clipPath id="clip0_246_1603">
<rect width="87" height="100" fill="white" transform="translate(10 10)"/>
</clipPath>
</defs>
</svg>
