<svg width="310" height="120" viewBox="0 0 310 120" fill="none" xmlns="http://www.w3.org/2000/svg">
<g clip-path="url(#clip0_246_1603)">
<g opacity="0.43">
<path d="M53.2979 10L96.5942 34.999L96.5958 84.9942L53.2995 59.9952L53.2979 10Z" fill="#FF8A1F"/>
<path d="M10.0016 34.999L53.2979 10L53.2963 59.9952L10 84.9942L10.0016 34.999Z" fill="url(#paint0_linear_246_1603)"/>
<path d="M53.2979 59.9927L96.5958 84.9889L53.2979 109.985L10 84.9889L53.2979 59.9927Z" fill="url(#paint1_linear_246_1603)"/>
<path d="M10 34.9907L53.2963 59.9897L53.2979 109.985L10.0016 84.9859L10 34.9907Z" fill="url(#paint2_linear_246_1603)"/>
<path d="M53.2979 59.9897L96.5942 34.9908L96.5927 84.986L53.2963 109.985L53.2979 59.9897Z" fill="url(#paint3_linear_246_1603)"/>
<path d="M10 34.9961L53.2979 10L96.5958 34.9961L53.2979 59.9927L10 34.9961Z" fill="url(#paint4_linear_246_1603)"/>
<path d="M53.2979 10L96.5942 34.999L96.5958 84.9942L53.2995 59.9952L53.2979 10ZM53.2979 10L10.0016 34.999L10 84.9942L53.2963 59.9952L53.2979 10ZM53.2979 59.9927L96.5958 34.9961L53.2979 10L10 34.9961L53.2979 59.9927ZM53.2979 109.985L10 84.9889L53.2979 59.9927L96.5958 84.9889L53.2979 109.985ZM53.2979 109.985L53.2963 59.9897L10 34.9907L10.0016 84.9859L53.2979 109.985ZM53.2979 59.9897L96.5942 34.9908L96.5927 84.986L53.2963 109.985L53.2979 59.9897Z" stroke="white" stroke-opacity="0.74" stroke-width="0.1"/>
</g>
<path d="M10 85L52.7368 60L97 85L52.7368 110L10 85Z" fill="white" fill-opacity="0.13"/>
<g opacity="0.4">
<path d="M53.4369 32L77.873 46.1092L77.8739 74.326L53.4378 60.2168L53.4369 32Z" fill="#6E6E6E" fill-opacity="0.2"/>
<path d="M29.0009 46.1092L53.4369 32L53.4361 60.2169L29 74.3261L29.0009 46.1092Z" fill="#5A5A5A" fill-opacity="0.2"/>
<path d="M53.4369 60.2154L77.8739 74.3231L53.4369 88.4307L29 74.3231L53.4369 60.2154Z" fill="#AAAAAA" fill-opacity="0.2"/>
<path d="M29 46.1045L53.4361 60.2137L53.4369 88.4307L29.0009 74.3214L29 46.1045Z" fill="#BEBEBE" fill-opacity="0.2"/>
<path d="M53.4369 60.2138L77.873 46.1046L77.8721 74.3214L53.436 88.4306L53.4369 60.2138Z" fill="#969696" fill-opacity="0.2"/>
<path d="M29 46.1076L53.4369 32L77.8739 46.1076L53.4369 60.2154L29 46.1076Z" fill="#828282" fill-opacity="0.2"/>
<path d="M53.4369 32L77.873 46.1092L77.8739 74.326L53.4378 60.2168L53.4369 32ZM53.4369 32L29.0009 46.1092L29 74.3261L53.4361 60.2169L53.4369 32ZM53.4369 60.2154L77.8739 46.1076L53.4369 32L29 46.1076L53.4369 60.2154ZM53.4369 88.4307L29 74.3231L53.4369 60.2154L77.8739 74.3231L53.4369 88.4307ZM53.4369 88.4307L53.4361 60.2137L29 46.1045L29.0009 74.3214L53.4369 88.4307ZM53.4369 60.2138L77.873 46.1046L77.8721 74.3214L53.436 88.4306L53.4369 60.2138Z" stroke="white" stroke-width="0.5"/>
<g style="mix-blend-mode:hard-light">
<path d="M53.4369 32L77.873 46.1092L77.8739 74.326L53.4378 60.2168L53.4369 32Z" fill="url(#paint5_linear_246_1603)"/>
<path d="M29.0009 46.1092L53.4369 32L53.4361 60.2169L29 74.3261L29.0009 46.1092Z" fill="url(#paint6_linear_246_1603)"/>
<path d="M53.4369 60.2154L77.8739 74.3231L53.4369 88.4307L29 74.3231L53.4369 60.2154Z" fill="url(#paint7_linear_246_1603)"/>
<path d="M29 46.1045L53.4361 60.2137L53.4369 88.4307L29.0009 74.3214L29 46.1045Z" fill="url(#paint8_linear_246_1603)"/>
<path d="M53.4369 60.2138L77.873 46.1046L77.8721 74.3214L53.436 88.4306L53.4369 60.2138Z" fill="url(#paint9_linear_246_1603)"/>
<path d="M29 46.1076L53.4369 32L77.8739 46.1076L53.4369 60.2154L29 46.1076Z" fill="url(#paint10_linear_246_1603)"/>
<path d="M53.4369 32L77.873 46.1092L77.8739 74.326L53.4378 60.2168L53.4369 32ZM53.4369 32L29.0009 46.1092L29 74.3261L53.4361 60.2169L53.4369 32ZM53.4369 60.2154L77.8739 46.1076L53.4369 32L29 46.1076L53.4369 60.2154ZM53.4369 88.4307L29 74.3231L53.4369 60.2154L77.8739 74.3231L53.4369 88.4307ZM53.4369 88.4307L53.4361 60.2137L29 46.1045L29.0009 74.3214L53.4369 88.4307ZM53.4369 60.2138L77.873 46.1046L77.8721 74.3214L53.436 88.4306L53.4369 60.2138Z" stroke="white" stroke-width="0.5"/>
</g>
</g>
<g filter="url(#filter3_f_246_1603)">
<ellipse cx="53.5" cy="50" rx="17.5" ry="13" fill="white" fill-opacity="0.55"/>
</g>
<path opacity="0.44" d="M13 41L50 62.3414L49.5 73.4961L19.1532 55.9961V76.4961L46 91.9961V102.549L13 83.4961V41Z" fill="#FE7412"/>
<path opacity="0.44" d="M93.373 41L57 62V75.3923L72 67.7735V96.5L81 90.8923V62.7735L93.373 55.5V41Z" fill="#FF7911"/>
</g>
<path d="M119.48 46C122.28 45.9466 124.587 46.4266 126.4 47.44C128.213 48.4533 129.653 49.8 130.72 51.48C131.013 51.9333 131.253 52.4 131.44 52.88C131.627 53.3333 131.8 53.84 131.96 54.4C132.013 54.5866 132.067 54.8 132.12 55.04C132.173 55.28 132.16 55.5066 132.08 55.72C132.027 55.88 131.92 55.9866 131.76 56.04C131.627 56.0666 131.467 56.1066 131.28 56.16H130.96C130.8 56.2133 130.613 56.24 130.4 56.24C130.213 56.2133 130.027 56.2 129.84 56.2C129.6 56.2 129.307 56.2133 128.96 56.24C128.64 56.24 128.32 56.24 128 56.24C127.68 56.2133 127.387 56.1866 127.12 56.16C126.853 56.1066 126.653 56.04 126.52 55.96C126.307 55.7733 126.147 55.52 126.04 55.2C125.933 54.88 125.8 54.6 125.64 54.36C125.133 53.48 124.467 52.7866 123.64 52.28C123.08 51.9333 122.453 51.6533 121.76 51.44C121.307 51.28 120.733 51.2 120.04 51.2C119.373 51.2 118.787 51.2666 118.28 51.4C118.067 51.4533 117.867 51.5066 117.68 51.56C117.52 51.5866 117.347 51.64 117.16 51.72C115.347 52.4933 114.067 53.7733 113.32 55.56C113.187 55.88 113.067 56.2133 112.96 56.56C112.853 56.9066 112.733 57.2666 112.6 57.64C112.573 57.8266 112.547 58 112.52 58.16C112.493 58.32 112.467 58.4933 112.44 58.68C112.387 58.84 112.36 59.0133 112.36 59.2C112.387 59.36 112.373 59.5333 112.32 59.72C112.267 59.9333 112.24 60.16 112.24 60.4C112.267 60.6133 112.28 60.8266 112.28 61.04C112.28 61.1466 112.267 61.2533 112.24 61.36C112.24 61.4666 112.253 61.5733 112.28 61.68V62.04C112.333 62.1733 112.347 62.3066 112.32 62.44C112.32 62.5733 112.347 62.7066 112.4 62.84C112.4 63 112.427 63.2133 112.48 63.48C112.533 63.7733 112.587 64.0533 112.64 64.32C112.693 64.56 112.76 64.8 112.84 65.04C113.213 66.16 113.693 67.12 114.28 67.92C114.867 68.6933 115.64 69.3333 116.6 69.84C116.893 69.9733 117.2 70.0933 117.52 70.2C117.84 70.28 118.187 70.3733 118.56 70.48C118.693 70.5066 118.813 70.5333 118.92 70.56C119.053 70.56 119.187 70.56 119.32 70.56H119.64C119.773 70.6133 119.947 70.64 120.16 70.64C120.373 70.6133 120.547 70.5866 120.68 70.56C120.84 70.56 120.96 70.5466 121.04 70.52C121.36 70.4666 121.653 70.4133 121.92 70.36C122.213 70.3066 122.493 70.2133 122.76 70.08C123.373 69.8133 123.893 69.4666 124.32 69.04C124.773 68.5866 125.173 68.08 125.52 67.52C125.68 67.2533 125.813 66.96 125.92 66.64C126.027 66.32 126.147 66 126.28 65.68C126.36 65.3866 126.44 65.12 126.52 64.88C126.6 64.64 126.773 64.4533 127.04 64.32C127.2 64.2666 127.4 64.24 127.64 64.24C127.88 64.24 128.107 64.24 128.32 64.24H130.76C131 64.24 131.24 64.24 131.48 64.24C131.747 64.24 131.96 64.2933 132.12 64.4C132.307 64.5333 132.4 64.7466 132.4 65.04C132.427 65.3333 132.4 65.6133 132.32 65.88L132.08 66.96C131.947 67.36 131.813 67.7466 131.68 68.12C131.573 68.4933 131.427 68.8533 131.24 69.2C131.107 69.4133 131 69.6266 130.92 69.84C130.84 70.0266 130.733 70.2133 130.6 70.4C129.133 72.6933 127 74.2933 124.2 75.2C123.907 75.3066 123.613 75.3866 123.32 75.44C123.027 75.4933 122.733 75.5466 122.44 75.6C122.307 75.6533 122.173 75.6666 122.04 75.64C121.933 75.64 121.813 75.6666 121.68 75.72C121.493 75.72 121.307 75.72 121.12 75.72C120.96 75.7466 120.787 75.7733 120.6 75.8H119.96C119.72 75.8 119.48 75.8 119.24 75.8C119 75.8 118.773 75.7733 118.56 75.72C118.48 75.6933 118.347 75.68 118.16 75.68C117.973 75.6533 117.787 75.6266 117.6 75.6C117.413 75.5733 117.213 75.5466 117 75.52C116.733 75.44 116.467 75.3733 116.2 75.32C115.96 75.2666 115.707 75.2 115.44 75.12C115.2 75.04 114.96 74.96 114.72 74.88C114.48 74.7733 114.253 74.6666 114.04 74.56C112.44 73.8666 111.08 72.9466 109.96 71.8C108.867 70.6266 107.973 69.24 107.28 67.64C107.12 67.24 106.987 66.84 106.88 66.44C106.773 66.04 106.653 65.6266 106.52 65.2C106.467 65.0666 106.44 64.96 106.44 64.88C106.44 64.7733 106.427 64.6666 106.4 64.56C106.347 64.32 106.307 64.0666 106.28 63.8C106.253 63.5333 106.213 63.28 106.16 63.04C106.107 62.9066 106.08 62.8 106.08 62.72C106.107 62.6133 106.107 62.5066 106.08 62.4V61.64C106.027 61.5066 106 61.3066 106 61.04C106 60.7733 106.027 60.5733 106.08 60.44C106.107 60.36 106.107 60.28 106.08 60.2C106.08 60.0933 106.08 60.0133 106.08 59.96V59.6C106.133 59.3866 106.16 59.16 106.16 58.92C106.187 58.68 106.213 58.44 106.24 58.2C106.293 57.9866 106.333 57.7866 106.36 57.6C106.387 57.3866 106.427 57.1733 106.48 56.96C106.587 56.5866 106.68 56.2266 106.76 55.88C106.84 55.5066 106.947 55.16 107.08 54.84C107.213 54.4933 107.347 54.1466 107.48 53.8C107.64 53.4533 107.813 53.1333 108 52.84C108.427 52.0933 108.867 51.4266 109.32 50.84C109.453 50.6533 109.6 50.48 109.76 50.32C109.92 50.16 110.08 50 110.24 49.84C110.907 49.1733 111.6 48.6133 112.32 48.16C113.067 47.68 113.907 47.2533 114.84 46.88C115.16 46.7466 115.493 46.64 115.84 46.56C116.187 46.4533 116.547 46.36 116.92 46.28C117.08 46.2266 117.24 46.2 117.4 46.2C117.56 46.2 117.707 46.1733 117.84 46.12C118.053 46.0933 118.253 46.08 118.44 46.08C118.653 46.0533 118.867 46.0266 119.08 46C119.133 45.9733 119.2 45.9733 119.28 46C119.36 46.0266 119.427 46.0266 119.48 46Z" fill="white"/>
<path d="M148.008 54.04C148.302 54.04 148.555 54.0666 148.768 54.12C149.008 54.1733 149.195 54.2933 149.328 54.48C149.488 54.6933 149.568 55.0666 149.568 55.6C149.568 56.1066 149.568 56.56 149.568 56.96C149.568 57.2533 149.568 57.5866 149.568 57.96C149.595 58.3333 149.555 58.6266 149.448 58.84C149.342 59.0266 149.182 59.1466 148.968 59.2C148.782 59.2533 148.555 59.28 148.288 59.28C148.048 59.28 147.782 59.2666 147.488 59.24C147.222 59.2133 146.968 59.2266 146.728 59.28C146.542 59.3333 146.355 59.3733 146.168 59.4C145.982 59.4 145.808 59.4266 145.648 59.48C145.222 59.6133 144.795 59.8133 144.368 60.08C143.942 60.32 143.608 60.6 143.368 60.92C143.235 61.1333 143.088 61.36 142.928 61.6C142.795 61.8133 142.662 62.04 142.528 62.28C142.448 62.4933 142.368 62.72 142.288 62.96C142.235 63.1733 142.182 63.3866 142.128 63.6C142.075 63.7866 142.048 63.9866 142.048 64.2C142.048 64.3866 142.022 64.5733 141.968 64.76C141.942 64.8666 141.928 64.9733 141.928 65.08C141.955 65.16 141.955 65.24 141.928 65.32V65.96C141.875 66.1466 141.862 66.36 141.888 66.6C141.915 66.8133 141.928 67.0266 141.928 67.24V73.2C141.928 73.5466 141.915 73.8666 141.888 74.16C141.862 74.4533 141.782 74.6933 141.648 74.88C141.595 74.96 141.502 75.0266 141.368 75.08C141.262 75.1066 141.142 75.1333 141.008 75.16H140.808C140.675 75.1866 140.528 75.2 140.368 75.2C140.208 75.2 140.062 75.2 139.928 75.2H138.208C138.048 75.1733 137.875 75.16 137.688 75.16C137.528 75.16 137.355 75.16 137.168 75.16C137.035 75.1066 136.902 75.0666 136.768 75.04C136.635 74.9866 136.542 74.8933 136.488 74.76C136.382 74.6266 136.315 74.44 136.288 74.2C136.288 73.9333 136.288 73.6666 136.288 73.4V56.44C136.288 56.1733 136.288 55.92 136.288 55.68C136.288 55.4133 136.342 55.2 136.448 55.04C136.582 54.8266 136.782 54.6933 137.048 54.64C137.315 54.5866 137.635 54.56 138.008 54.56H140.048C140.368 54.56 140.648 54.5866 140.888 54.64C141.128 54.6666 141.315 54.7866 141.448 55C141.528 55.1333 141.568 55.32 141.568 55.56C141.595 55.8 141.622 56.04 141.648 56.28C141.675 56.4933 141.715 56.6933 141.768 56.88C141.848 57.0666 141.982 57.16 142.168 57.16C142.222 57.1066 142.275 57.08 142.328 57.08C142.382 57.08 142.435 57.0533 142.488 57C142.648 56.8666 142.782 56.72 142.888 56.56C143.022 56.3733 143.182 56.2133 143.368 56.08C143.475 56 143.568 55.92 143.648 55.84C143.728 55.7333 143.822 55.64 143.928 55.56C144.168 55.4 144.408 55.24 144.648 55.08C144.915 54.92 145.182 54.7733 145.448 54.64C145.715 54.5333 145.982 54.44 146.248 54.36C146.542 54.28 146.835 54.2 147.128 54.12C147.208 54.0933 147.355 54.0933 147.568 54.12C147.808 54.12 147.955 54.0933 148.008 54.04Z" fill="white"/>
<path d="M170.692 64.68C170.746 64.8933 170.746 65.1333 170.692 65.4C170.639 65.6666 170.546 65.84 170.412 65.92C170.279 66.0266 170.079 66.1066 169.812 66.16C169.572 66.1866 169.292 66.2133 168.972 66.24C168.679 66.24 168.372 66.24 168.052 66.24C167.759 66.2133 167.492 66.2 167.252 66.2H157.492C157.306 66.2 157.119 66.2 156.932 66.2C156.772 66.2 156.626 66.2266 156.492 66.28C156.279 66.3866 156.146 66.4933 156.092 66.6C156.039 66.6533 155.986 66.76 155.932 66.92C155.879 67.0533 155.866 67.1866 155.892 67.32C155.946 67.48 155.972 67.64 155.972 67.8C155.999 67.9333 156.039 68.08 156.092 68.24C156.306 68.88 156.559 69.4133 156.852 69.84C157.172 70.24 157.599 70.6 158.132 70.92C158.346 71.0533 158.559 71.1466 158.772 71.2C159.012 71.2266 159.252 71.28 159.492 71.36C159.706 71.4133 159.999 71.4533 160.372 71.48C160.746 71.5066 161.066 71.4933 161.332 71.44H161.692C161.959 71.3866 162.199 71.3333 162.412 71.28C162.652 71.2 162.879 71.12 163.092 71.04C163.359 70.9066 163.652 70.7333 163.972 70.52C164.319 70.3066 164.572 70.0933 164.732 69.88C164.866 69.6933 164.999 69.52 165.132 69.36C165.292 69.1733 165.479 69.04 165.692 68.96C165.959 68.8266 166.292 68.7733 166.692 68.8C167.119 68.8 167.506 68.8 167.852 68.8C168.012 68.8 168.172 68.8 168.332 68.8C168.519 68.7733 168.679 68.7866 168.812 68.84H169.212C169.479 68.8933 169.666 68.96 169.772 69.04C169.879 69.0933 169.932 69.2133 169.932 69.4C169.959 69.5866 169.946 69.7466 169.892 69.88C169.759 70.2533 169.612 70.5866 169.452 70.88C169.292 71.1733 169.106 71.4666 168.892 71.76C168.306 72.64 167.639 73.3466 166.892 73.88C166.146 74.4133 165.212 74.8666 164.092 75.24C163.799 75.3466 163.506 75.4133 163.212 75.44C162.919 75.4666 162.612 75.52 162.292 75.6C162.186 75.6266 162.066 75.6266 161.932 75.6C161.826 75.6 161.719 75.6133 161.612 75.64H161.172C161.039 75.6933 160.879 75.7066 160.692 75.68C160.532 75.68 160.386 75.6666 160.252 75.64C160.039 75.6133 159.852 75.6133 159.692 75.64C159.532 75.6666 159.359 75.6533 159.172 75.6C159.039 75.5466 158.892 75.52 158.732 75.52C158.572 75.52 158.426 75.4933 158.292 75.44C157.999 75.3866 157.706 75.32 157.412 75.24C157.119 75.1866 156.852 75.0933 156.612 74.96C156.319 74.8533 156.039 74.76 155.772 74.68C155.532 74.5733 155.306 74.4533 155.092 74.32C154.239 73.7866 153.479 73.1733 152.812 72.48C152.146 71.76 151.599 70.9333 151.172 70C151.039 69.7066 150.932 69.4133 150.852 69.12C150.772 68.8 150.666 68.48 150.532 68.16C150.506 68.0533 150.492 67.96 150.492 67.88C150.492 67.7733 150.479 67.6666 150.452 67.56C150.346 67.24 150.279 66.8933 150.252 66.52C150.226 66.1466 150.199 65.7733 150.172 65.4C150.172 65.2666 150.159 65.12 150.132 64.96C150.132 64.8 150.146 64.6533 150.172 64.52V64.04L150.292 63.08C150.399 62.6266 150.492 62.1866 150.572 61.76C150.652 61.3333 150.772 60.9333 150.932 60.56C152.079 57.7866 154.026 55.8266 156.772 54.68C157.146 54.52 157.519 54.4133 157.892 54.36C158.292 54.28 158.706 54.1866 159.132 54.08C159.346 54.0533 159.546 54.04 159.732 54.04C159.919 54.04 160.119 54.0266 160.332 54C161.692 53.9733 162.852 54.1333 163.812 54.48C164.799 54.8 165.679 55.2266 166.452 55.76C166.692 55.92 166.932 56.1066 167.172 56.32C167.412 56.5066 167.626 56.7066 167.812 56.92C167.892 57.0533 167.999 57.16 168.132 57.24C168.346 57.5333 168.546 57.84 168.732 58.16C168.919 58.4533 169.119 58.76 169.332 59.08C169.466 59.32 169.572 59.5733 169.652 59.84C169.759 60.08 169.866 60.3466 169.972 60.64C170.106 60.9866 170.212 61.3466 170.292 61.72C170.372 62.0933 170.466 62.4666 170.572 62.84C170.626 63.0533 170.639 63.2933 170.612 63.56C170.612 63.8 170.639 64.0266 170.692 64.24V64.68ZM164.692 62.32C164.879 62.0533 164.892 61.7333 164.732 61.36C164.599 60.96 164.492 60.6666 164.412 60.48C164.039 59.76 163.546 59.2133 162.932 58.84C162.319 58.44 161.466 58.2266 160.372 58.2C160.292 58.2533 160.199 58.2666 160.092 58.24C159.986 58.2133 159.892 58.2133 159.812 58.24C159.679 58.2933 159.532 58.3333 159.372 58.36C159.212 58.36 159.066 58.3866 158.932 58.44C157.759 58.8133 156.892 59.5466 156.332 60.64C156.279 60.7466 156.212 60.8933 156.132 61.08C156.079 61.24 156.039 61.4133 156.012 61.6C155.986 61.76 155.986 61.92 156.012 62.08C156.066 62.24 156.159 62.3733 156.292 62.48C156.506 62.6133 156.799 62.68 157.172 62.68C157.546 62.68 157.906 62.68 158.252 62.68H162.692C163.066 62.68 163.452 62.68 163.852 62.68C164.279 62.6533 164.559 62.5333 164.692 62.32Z" fill="white"/>
<path d="M192.821 73.6C192.874 73.8933 192.901 74.1866 192.901 74.48C192.928 74.7733 192.794 74.9733 192.501 75.08C192.341 75.16 192.154 75.2 191.941 75.2C191.728 75.2 191.514 75.2 191.301 75.2H189.141C188.901 75.2 188.661 75.2 188.421 75.2C188.208 75.1733 188.034 75.1066 187.901 75C187.714 74.8933 187.568 74.7466 187.461 74.56C187.381 74.3466 187.261 74.1733 187.101 74.04C187.048 73.9866 186.981 73.9466 186.901 73.92C186.821 73.8666 186.714 73.8533 186.581 73.88C186.448 73.9333 186.314 74 186.181 74.08C186.074 74.16 185.954 74.2266 185.821 74.28C185.688 74.3866 185.541 74.48 185.381 74.56C185.221 74.64 185.061 74.72 184.901 74.8C184.554 74.96 184.194 75.0933 183.821 75.2C183.448 75.28 183.061 75.3733 182.661 75.48C182.474 75.5333 182.288 75.56 182.101 75.56C181.941 75.5866 181.768 75.6133 181.581 75.64C181.501 75.64 181.421 75.64 181.341 75.64C181.261 75.6666 181.181 75.68 181.101 75.68H180.661C180.394 75.7333 180.128 75.7333 179.861 75.68H179.501C179.314 75.6266 179.128 75.6 178.941 75.6C178.781 75.6266 178.621 75.6133 178.461 75.56C178.194 75.5066 177.941 75.4533 177.701 75.4C177.461 75.3733 177.234 75.3066 177.021 75.2C176.248 74.9066 175.581 74.5333 175.021 74.08C174.488 73.6 174.061 72.9733 173.741 72.2C173.661 72.0133 173.581 71.8133 173.501 71.6C173.448 71.3866 173.394 71.16 173.341 70.92C173.288 70.7866 173.261 70.6533 173.261 70.52C173.288 70.3866 173.288 70.2533 173.261 70.12C173.234 70.04 173.208 69.88 173.181 69.64C173.181 69.3733 173.194 69.1866 173.221 69.08C173.274 68.8133 173.301 68.5866 173.301 68.4C173.381 68.1066 173.461 67.8133 173.541 67.52C173.621 67.2 173.728 66.92 173.861 66.68C174.314 65.9066 174.834 65.32 175.421 64.92C176.008 64.52 176.754 64.1733 177.661 63.88C178.008 63.7466 178.368 63.6533 178.741 63.6C179.114 63.5466 179.488 63.48 179.861 63.4C180.074 63.3466 180.301 63.32 180.541 63.32C180.781 63.2933 181.021 63.2533 181.261 63.2C181.448 63.1466 181.634 63.1333 181.821 63.16C182.008 63.16 182.208 63.1333 182.421 63.08C182.608 63.0266 182.794 63 182.981 63C183.168 63 183.368 62.9733 183.581 62.92C184.141 62.7866 184.648 62.68 185.101 62.6C185.581 62.4933 186.008 62.2533 186.381 61.88C186.621 61.64 186.781 61.3733 186.861 61.08C186.888 61 186.888 60.9333 186.861 60.88C186.861 60.8266 186.874 60.7733 186.901 60.72C186.928 60.6666 186.941 60.5866 186.941 60.48C186.941 60.3733 186.941 60.2933 186.941 60.24C186.914 60.1333 186.888 60.0266 186.861 59.92C186.861 59.8133 186.848 59.72 186.821 59.64C186.554 58.84 185.994 58.2933 185.141 58C184.901 57.92 184.608 57.8666 184.261 57.84C183.941 57.7866 183.608 57.7733 183.261 57.8C182.914 57.8 182.581 57.8266 182.261 57.88C181.941 57.9333 181.661 58 181.421 58.08C181.261 58.1333 181.101 58.2133 180.941 58.32C180.808 58.4 180.674 58.4933 180.541 58.6C180.408 58.7066 180.261 58.8533 180.101 59.04C179.968 59.2266 179.874 59.4 179.821 59.56C179.688 59.8266 179.568 60.08 179.461 60.32C179.381 60.56 179.194 60.72 178.901 60.8C178.688 60.8533 178.461 60.88 178.221 60.88C177.981 60.88 177.741 60.88 177.501 60.88H175.981C175.848 60.88 175.714 60.8933 175.581 60.92C175.448 60.92 175.328 60.9066 175.221 60.88H174.861C174.808 60.8533 174.741 60.84 174.661 60.84C174.581 60.84 174.514 60.8133 174.461 60.76C174.248 60.7066 174.101 60.5333 174.021 60.24C173.994 60.1066 173.994 59.9733 174.021 59.84C174.048 59.7066 174.074 59.5866 174.101 59.48C174.181 59.1866 174.261 58.92 174.341 58.68C174.448 58.4133 174.568 58.1733 174.701 57.96C174.781 57.8266 174.861 57.6933 174.941 57.56C175.021 57.4266 175.101 57.2933 175.181 57.16C175.394 56.8666 175.661 56.5866 175.981 56.32C176.034 56.2933 176.114 56.2266 176.221 56.12C176.354 56.0133 176.474 55.92 176.581 55.84C176.688 55.76 176.808 55.68 176.941 55.6C177.394 55.3066 177.874 55.08 178.381 54.92C178.888 54.7333 179.408 54.56 179.941 54.4C180.261 54.32 180.594 54.2666 180.941 54.24C181.288 54.2133 181.634 54.16 181.981 54.08C182.088 54.0533 182.248 54.0533 182.461 54.08C182.701 54.1066 182.848 54.0933 182.901 54.04C183.994 54.0133 185.034 54.0533 186.021 54.16C187.034 54.2666 187.941 54.4666 188.741 54.76C189.568 55.0533 190.274 55.4533 190.861 55.96C191.448 56.44 191.901 57.0666 192.221 57.84C192.408 58.2933 192.514 58.8133 192.541 59.4C192.568 59.9866 192.581 60.5866 192.581 61.2V70.12C192.581 70.6266 192.581 71.1466 192.581 71.68C192.581 72.1866 192.634 72.6533 192.741 73.08C192.768 73.16 192.781 73.2533 192.781 73.36C192.781 73.44 192.794 73.52 192.821 73.6ZM186.941 67.44C186.968 67.3066 186.981 67.16 186.981 67C186.981 66.8133 186.968 66.6533 186.941 66.52C186.888 66.36 186.861 66.2133 186.861 66.08C186.861 65.9466 186.808 65.84 186.701 65.76C186.568 65.6533 186.368 65.6 186.101 65.6C185.994 65.6266 185.901 65.6533 185.821 65.68C185.741 65.68 185.648 65.6933 185.541 65.72C185.354 65.7733 185.154 65.8133 184.941 65.84C184.728 65.8666 184.514 65.9066 184.301 65.96C184.221 65.9866 184.101 66 183.941 66C183.594 66.08 183.248 66.1333 182.901 66.16C182.554 66.1866 182.221 66.2533 181.901 66.36C181.688 66.4133 181.488 66.4666 181.301 66.52C181.114 66.5466 180.928 66.6 180.741 66.68C180.181 66.92 179.701 67.28 179.301 67.76C178.928 68.24 178.794 68.9066 178.901 69.76C178.954 70.2133 179.101 70.5866 179.341 70.88C179.528 71.1733 179.808 71.4133 180.181 71.6C180.554 71.76 180.954 71.88 181.381 71.96C181.834 72.04 182.301 72.0666 182.781 72.04C183.288 71.9866 183.754 71.8933 184.181 71.76C184.874 71.5466 185.421 71.2133 185.821 70.76C186.221 70.28 186.528 69.6933 186.741 69C186.794 68.8133 186.821 68.6266 186.821 68.44C186.848 68.2266 186.888 68.0133 186.941 67.8V67.44Z" fill="white"/>
<path d="M196.55 46.68H216.63C216.976 46.68 217.31 46.6933 217.63 46.72C217.976 46.72 218.256 46.7866 218.47 46.92C218.55 46.9733 218.603 47.0666 218.63 47.2C218.683 47.3066 218.723 47.4266 218.75 47.56V47.76C218.776 47.8666 218.79 47.9866 218.79 48.12C218.79 48.2533 218.79 48.3866 218.79 48.52V50.08C218.79 50.2666 218.79 50.4533 218.79 50.64C218.816 50.8 218.803 50.96 218.75 51.12C218.616 51.5733 218.35 51.8133 217.95 51.84C217.55 51.8666 217.07 51.88 216.51 51.88H212.43C211.896 51.88 211.43 51.9066 211.03 51.96C210.656 51.9866 210.403 52.2266 210.27 52.68C210.243 52.8133 210.243 52.9333 210.27 53.04C210.296 53.1466 210.283 53.2666 210.23 53.4C210.203 53.56 210.19 53.7466 210.19 53.96C210.216 54.1466 210.23 54.32 210.23 54.48V73.32C210.23 73.7466 210.203 74.12 210.15 74.44C210.123 74.7333 209.963 74.9466 209.67 75.08C209.483 75.1333 209.27 75.16 209.03 75.16C208.79 75.16 208.563 75.16 208.35 75.16H205.63C205.336 75.16 205.056 75.1466 204.79 75.12C204.55 75.0933 204.363 75 204.23 74.84C204.096 74.6266 204.03 74.36 204.03 74.04C204.03 73.6933 204.03 73.3466 204.03 73V54.48C204.03 54.2933 204.03 54.1066 204.03 53.92C204.056 53.7066 204.043 53.52 203.99 53.36C203.963 53.2266 203.963 53.1066 203.99 53C204.016 52.8933 204.003 52.7866 203.95 52.68C203.816 52.2266 203.536 51.9866 203.11 51.96C202.71 51.9066 202.23 51.88 201.67 51.88H197.95C197.656 51.88 197.323 51.8933 196.95 51.92C196.603 51.92 196.323 51.8933 196.11 51.84C195.896 51.76 195.736 51.64 195.63 51.48C195.55 51.3466 195.496 51.1733 195.47 50.96C195.47 50.7466 195.47 50.5333 195.47 50.32V48.36C195.47 48.0133 195.483 47.7066 195.51 47.44C195.563 47.1733 195.696 46.9733 195.91 46.84C195.99 46.7866 196.136 46.7333 196.35 46.68C196.483 46.68 196.55 46.68 196.55 46.68Z" fill="white"/>
<path d="M222.643 46.72H225.363C225.629 46.72 225.883 46.72 226.123 46.72C226.389 46.72 226.603 46.7866 226.763 46.92C226.949 47.0266 227.069 47.2533 227.123 47.6C227.123 47.7333 227.123 47.8666 227.123 48C227.149 48.1066 227.163 48.2266 227.163 48.36V54.4C227.163 54.5866 227.149 54.8 227.123 55.04C227.123 55.28 227.136 55.52 227.163 55.76C227.189 55.9733 227.243 56.16 227.323 56.32C227.429 56.4533 227.576 56.52 227.763 56.52C227.816 56.4666 227.869 56.44 227.923 56.44C227.976 56.44 228.029 56.4133 228.083 56.36C228.269 56.2266 228.443 56.08 228.603 55.92C228.763 55.7333 228.949 55.5733 229.163 55.44C229.456 55.2266 229.763 55.04 230.083 54.88C230.403 54.72 230.749 54.56 231.123 54.4C231.229 54.3466 231.336 54.32 231.443 54.32C231.549 54.32 231.669 54.2933 231.803 54.24C232.069 54.16 232.349 54.1066 232.643 54.08C232.936 54.0533 233.256 54.04 233.603 54.04C233.736 54.04 233.856 54.04 233.963 54.04C234.096 54.04 234.229 54.0533 234.363 54.08H234.603C234.789 54.1066 234.963 54.1333 235.123 54.16C235.309 54.1866 235.496 54.2133 235.683 54.24C236.136 54.3733 236.549 54.52 236.923 54.68C237.323 54.8133 237.709 54.9866 238.083 55.2C238.669 55.5733 239.136 56.0533 239.483 56.64C239.856 57.2 240.163 57.8266 240.403 58.52C240.456 58.7333 240.496 58.96 240.523 59.2C240.576 59.4133 240.629 59.6266 240.683 59.84C240.736 60.08 240.763 60.3333 240.763 60.6C240.763 60.8666 240.789 61.1333 240.843 61.4V61.84C240.896 62.0533 240.909 62.2933 240.883 62.56C240.856 62.8 240.843 63.0266 240.843 63.24V72.32C240.843 72.7733 240.856 73.2533 240.883 73.76C240.909 74.2666 240.816 74.6533 240.603 74.92C240.469 75.08 240.256 75.1733 239.963 75.2C239.669 75.2 239.376 75.2 239.083 75.2H237.083C236.656 75.2 236.296 75.1866 236.003 75.16C235.709 75.1066 235.496 74.9333 235.363 74.64C235.283 74.48 235.243 74.2933 235.243 74.08C235.243 73.84 235.243 73.6133 235.243 73.4V64.72C235.243 63.6 235.189 62.5733 235.083 61.64C234.976 60.68 234.643 59.9333 234.083 59.4C233.709 59.0266 233.256 58.76 232.723 58.6C232.616 58.5733 232.523 58.56 232.443 58.56C232.389 58.56 232.309 58.5466 232.203 58.52C232.096 58.4933 231.949 58.4666 231.763 58.44C231.603 58.4133 231.469 58.4266 231.363 58.48C231.203 58.5066 231.029 58.52 230.843 58.52C230.683 58.52 230.523 58.5466 230.363 58.6C229.749 58.76 229.216 59 228.763 59.32C228.283 59.6933 227.923 60.2 227.683 60.84C227.469 61.4533 227.323 62.16 227.243 62.96C227.163 63.7333 227.123 64.56 227.123 65.44C227.149 66.32 227.163 67.1733 227.163 68V72.84C227.163 73.1866 227.163 73.56 227.163 73.96C227.163 74.3333 227.096 74.6266 226.963 74.84C226.883 74.9466 226.776 75.0266 226.643 75.08C226.509 75.1066 226.376 75.1466 226.243 75.2C226.083 75.2533 225.896 75.2666 225.683 75.24C225.496 75.2133 225.309 75.2 225.123 75.2C224.883 75.2 224.603 75.2 224.283 75.2C223.963 75.2266 223.643 75.24 223.323 75.24C223.003 75.24 222.709 75.2266 222.443 75.2C222.176 75.1466 221.976 75.0666 221.843 74.96C221.683 74.8266 221.589 74.6266 221.563 74.36C221.563 74.0666 221.563 73.7733 221.563 73.48V49.44C221.563 49.0933 221.549 48.68 221.523 48.2C221.496 47.72 221.549 47.3733 221.683 47.16C221.843 46.9733 222.056 46.84 222.323 46.76C222.376 46.7333 222.429 46.7333 222.483 46.76C222.536 46.76 222.589 46.7466 222.643 46.72Z" fill="white"/>
<path d="M251.034 73C251.034 73.5333 251.02 73.9866 250.994 74.36C250.967 74.7333 250.727 74.9866 250.274 75.12C250.114 75.1733 249.94 75.2 249.754 75.2C249.567 75.1733 249.367 75.16 249.154 75.16H246.914C246.674 75.16 246.434 75.1466 246.194 75.12C245.98 75.0933 245.82 75.0133 245.714 74.88C245.554 74.6933 245.46 74.4666 245.434 74.2C245.434 73.9066 245.434 73.6 245.434 73.28V56.4C245.434 56.1333 245.434 55.8666 245.434 55.6C245.434 55.3333 245.487 55.12 245.594 54.96C245.754 54.7733 245.98 54.6533 246.274 54.6C246.327 54.5733 246.394 54.5733 246.474 54.6C246.58 54.6 246.66 54.5866 246.714 54.56H248.714C248.874 54.56 249.047 54.56 249.234 54.56C249.447 54.5333 249.62 54.5333 249.754 54.56H250.074C250.234 54.6133 250.38 54.6533 250.514 54.68C250.647 54.7066 250.754 54.7866 250.834 54.92C250.94 55.0533 250.994 55.24 250.994 55.48C251.02 55.72 251.034 55.9733 251.034 56.24V73Z" fill="white"/>
<path d="M267.266 54.04C268.866 53.9866 270.2 54.2133 271.266 54.72C272.333 55.2266 273.173 55.9733 273.786 56.96C273.973 57.2533 274.12 57.5733 274.226 57.92C274.333 58.24 274.44 58.5733 274.546 58.92C274.6 59.1333 274.626 59.3333 274.626 59.52C274.653 59.7066 274.693 59.8933 274.746 60.08C274.746 60.24 274.76 60.3466 274.786 60.4C274.84 60.7733 274.866 61.16 274.866 61.56C274.866 61.96 274.866 62.3466 274.866 62.72V72.76C274.866 73.2666 274.853 73.76 274.826 74.24C274.826 74.6933 274.64 74.9866 274.266 75.12C274.106 75.1733 273.92 75.2 273.706 75.2C273.493 75.2 273.28 75.2 273.066 75.2H270.906C270.586 75.2 270.293 75.1866 270.026 75.16C269.786 75.1066 269.6 74.9866 269.466 74.8C269.36 74.64 269.293 74.44 269.266 74.2C269.266 73.9333 269.266 73.6533 269.266 73.36V64.6C269.266 63.6133 269.226 62.7066 269.146 61.88C269.066 61.0266 268.826 60.3066 268.426 59.72C268.053 59.1866 267.506 58.8133 266.786 58.6C266.653 58.5466 266.506 58.52 266.346 58.52C266.213 58.52 266.066 58.4933 265.906 58.44C265.773 58.4133 265.6 58.4133 265.386 58.44C265.2 58.44 265.053 58.4533 264.946 58.48C264.84 58.5066 264.746 58.52 264.666 58.52C264.586 58.52 264.506 58.5333 264.426 58.56C263.813 58.72 263.32 58.9333 262.946 59.2C262.093 59.8133 261.586 60.7066 261.426 61.88C261.266 63.0533 261.186 64.3733 261.186 65.84V73.28C261.186 73.52 261.186 73.76 261.186 74C261.186 74.24 261.146 74.44 261.066 74.6C260.933 74.8933 260.72 75.0666 260.426 75.12C260.133 75.1733 259.773 75.2 259.346 75.2H257.346C257.053 75.2 256.76 75.1866 256.466 75.16C256.173 75.1333 255.96 75.04 255.826 74.88C255.64 74.64 255.546 74.2933 255.546 73.84C255.573 73.3866 255.586 72.96 255.586 72.56V56.28C255.586 55.9866 255.586 55.72 255.586 55.48C255.613 55.24 255.693 55.04 255.826 54.88C255.88 54.8 255.96 54.7466 256.066 54.72C256.2 54.6666 256.333 54.6266 256.466 54.6H256.666C256.8 54.5733 256.933 54.56 257.066 54.56C257.226 54.56 257.373 54.56 257.506 54.56H259.186C259.4 54.56 259.6 54.5733 259.786 54.6C260 54.6 260.186 54.6266 260.346 54.68C260.533 54.76 260.653 54.88 260.706 55.04C260.786 55.2 260.853 55.3866 260.906 55.6C260.933 55.7066 260.933 55.8 260.906 55.88C260.906 55.96 260.933 56.04 260.986 56.12C261.04 56.2533 261.08 56.3333 261.106 56.36C261.16 56.3866 261.226 56.4266 261.306 56.48C261.6 56.5066 261.84 56.4133 262.026 56.2C262.213 55.96 262.413 55.7733 262.626 55.64C263.346 55.1066 264.146 54.68 265.026 54.36C265.266 54.28 265.506 54.2266 265.746 54.2C266.013 54.1733 266.293 54.1333 266.586 54.08C266.666 54.0533 266.786 54.0533 266.946 54.08C267.106 54.08 267.213 54.0666 267.266 54.04Z" fill="white"/>
<path d="M280.817 46.68H283.737C284.031 46.68 284.297 46.6933 284.537 46.72C284.777 46.7466 284.964 46.8266 285.097 46.96C285.311 47.2 285.404 47.5866 285.377 48.12C285.377 48.6533 285.377 49.1466 285.377 49.6V58.8C285.377 58.9866 285.364 59.1866 285.337 59.4C285.311 59.6133 285.324 59.8133 285.377 60V60.36C285.431 60.4933 285.471 60.64 285.497 60.8C285.524 60.9333 285.604 61.0266 285.737 61.08C285.817 61.1333 285.924 61.1466 286.057 61.12C286.191 61.0666 286.284 61.0133 286.337 60.96C286.604 60.7733 286.831 60.56 287.017 60.32C287.231 60.08 287.444 59.8533 287.657 59.64C287.871 59.4266 288.097 59.2133 288.337 59C288.577 58.76 288.791 58.5066 288.977 58.24C289.057 58.1866 289.151 58.1066 289.257 58C289.391 57.8666 289.524 57.7333 289.657 57.6C289.791 57.44 289.924 57.2933 290.057 57.16L290.977 56.24C291.031 56.1333 291.097 56.0533 291.177 56C291.284 55.92 291.377 55.8266 291.457 55.72C291.671 55.4533 291.897 55.2266 292.137 55.04C292.404 54.8266 292.724 54.68 293.097 54.6C293.231 54.5733 293.417 54.56 293.657 54.56C293.764 54.5333 293.871 54.5333 293.977 54.56C294.084 54.56 294.204 54.56 294.337 54.56H295.657C295.871 54.56 296.124 54.5466 296.417 54.52C296.737 54.4933 297.004 54.5066 297.217 54.56H297.657C297.791 54.6133 297.924 54.6533 298.057 54.68C298.191 54.68 298.284 54.7333 298.337 54.84C298.391 54.92 298.391 55.0266 298.337 55.16C298.311 55.2933 298.271 55.3866 298.217 55.44C298.057 55.7066 297.857 55.9466 297.617 56.16C297.377 56.3466 297.151 56.5466 296.937 56.76C296.751 56.9466 296.564 57.1333 296.377 57.32C296.217 57.5066 296.031 57.68 295.817 57.84C295.684 57.9466 295.564 58.0666 295.457 58.2C295.377 58.3066 295.271 58.4133 295.137 58.52C295.004 58.6 294.884 58.7066 294.777 58.84C294.671 58.9733 294.551 59.0933 294.417 59.2L292.897 60.72C292.711 60.88 292.537 61.04 292.377 61.2C292.244 61.3333 292.111 61.5066 291.977 61.72C291.924 61.8 291.871 61.9066 291.817 62.04C291.764 62.1466 291.764 62.2666 291.817 62.4C291.871 62.6933 291.964 62.9333 292.097 63.12C292.257 63.3066 292.404 63.5066 292.537 63.72C292.751 64.0133 292.937 64.3066 293.097 64.6C293.284 64.8933 293.484 65.1866 293.697 65.48L297.897 71.84C298.164 72.2133 298.417 72.5866 298.657 72.96C298.924 73.3333 299.164 73.7066 299.377 74.08C299.457 74.2133 299.497 74.3733 299.497 74.56C299.524 74.7466 299.471 74.8933 299.337 75C299.231 75.0533 299.124 75.08 299.017 75.08C298.911 75.08 298.791 75.1066 298.657 75.16C298.551 75.1866 298.431 75.2 298.297 75.2C298.164 75.1733 298.031 75.16 297.897 75.16H296.337C295.911 75.16 295.404 75.1733 294.817 75.2C294.231 75.2 293.791 75.1333 293.497 75C293.204 74.8666 292.951 74.6266 292.737 74.28C292.524 73.9066 292.324 73.5733 292.137 73.28C291.684 72.56 291.231 71.84 290.777 71.12C290.324 70.3733 289.871 69.64 289.417 68.92C289.204 68.5733 288.991 68.2266 288.777 67.88C288.591 67.5333 288.377 67.2 288.137 66.88C288.084 66.8 287.991 66.6933 287.857 66.56C287.724 66.4266 287.577 66.3866 287.417 66.44C287.177 66.4933 286.991 66.5733 286.857 66.68C286.751 66.7866 286.631 66.9066 286.497 67.04C286.284 67.2 286.084 67.3866 285.897 67.6C285.711 67.8133 285.564 68.0666 285.457 68.36C285.404 68.5733 285.377 68.8133 285.377 69.08C285.377 69.32 285.377 69.56 285.377 69.8V72.28C285.377 72.4666 285.377 72.68 285.377 72.92C285.404 73.1333 285.417 73.36 285.417 73.6C285.417 73.84 285.404 74.0666 285.377 74.28C285.351 74.4666 285.297 74.6133 285.217 74.72C285.111 74.88 284.937 75 284.697 75.08C284.484 75.1333 284.231 75.1733 283.937 75.2C283.644 75.2 283.337 75.2 283.017 75.2C282.697 75.1733 282.417 75.16 282.177 75.16C281.884 75.16 281.564 75.1733 281.217 75.2C280.871 75.2 280.591 75.16 280.377 75.08C280.031 74.9466 279.844 74.7066 279.817 74.36C279.791 74.0133 279.777 73.6133 279.777 73.16V48.8C279.777 48.5066 279.764 48.2 279.737 47.88C279.737 47.56 279.791 47.3066 279.897 47.12C280.004 46.9333 280.191 46.8 280.457 46.72C280.511 46.72 280.564 46.72 280.617 46.72C280.697 46.6933 280.764 46.68 280.817 46.68Z" fill="white"/>
<path d="M247.98 44.2002L251.48 46.221L251.48 50.2624L247.98 48.2416L247.98 44.2002Z" fill="#6E6E6E"/>
<path d="M244.48 46.221L247.98 44.2002L247.98 48.2416L244.48 50.2624L244.48 46.221Z" fill="#5A5A5A"/>
<path d="M247.98 48.2416L251.48 50.2624L247.98 52.2825L244.48 50.2624L247.98 48.2416Z" fill="#AAAAAA"/>
<path d="M244.48 46.221L247.98 48.2416L247.98 52.2825L244.48 50.2624L244.48 46.221Z" fill="white"/>
<path d="M247.98 48.2416L251.48 46.221L251.48 50.2624L247.98 52.2825L247.98 48.2416Z" fill="white"/>
<path d="M244.48 46.221L247.98 44.2002L251.48 46.221L247.98 48.2416L244.48 46.221Z" fill="white"/>
<defs>
<filter id="filter3_f_246_1603" x="19.1" y="20.1" width="68.8" height="59.8" filterUnits="userSpaceOnUse" color-interpolation-filters="sRGB">
<feFlood flood-opacity="0" result="BackgroundImageFix"/>
<feBlend mode="normal" in="SourceGraphic" in2="BackgroundImageFix" result="shape"/>
<feGaussianBlur stdDeviation="8.45" result="effect1_foregroundBlur_246_1603"/>
</filter>
<linearGradient id="paint0_linear_246_1603" x1="53.2979" y1="10" x2="53.2979" y2="109.985" gradientUnits="userSpaceOnUse">
<stop offset="0.6875" stop-color="#FF8F1A"/>
<stop offset="1" stop-color="#E0C5A8" stop-opacity="0.945098"/>
</linearGradient>
<linearGradient id="paint1_linear_246_1603" x1="53.2979" y1="10" x2="53.2979" y2="109.985" gradientUnits="userSpaceOnUse">
<stop offset="0.6875" stop-color="#FF8F1A"/>
<stop offset="1" stop-color="#E0C5A8" stop-opacity="0.945098"/>
</linearGradient>
<linearGradient id="paint2_linear_246_1603" x1="53.2979" y1="10" x2="53.2979" y2="109.985" gradientUnits="userSpaceOnUse">
<stop offset="0.6875" stop-color="#FF8F1A"/>
<stop offset="1" stop-color="#E0C5A8" stop-opacity="0.945098"/>
</linearGradient>
<linearGradient id="paint3_linear_246_1603" x1="53.2979" y1="10" x2="53.2979" y2="109.985" gradientUnits="userSpaceOnUse">
<stop offset="0.6875" stop-color="#FF8F1A"/>
<stop offset="1" stop-color="#E0C5A8" stop-opacity="0.945098"/>
</linearGradient>
<linearGradient id="paint4_linear_246_1603" x1="53.2979" y1="10" x2="53.2979" y2="109.985" gradientUnits="userSpaceOnUse">
<stop offset="0.230769" stop-color="#FF8F1A"/>
<stop offset="0.591346" stop-color="#FFFEFD"/>
</linearGradient>
<linearGradient id="paint5_linear_246_1603" x1="53.5" y1="42" x2="53.5" y2="94.9999" gradientUnits="userSpaceOnUse">
<stop stop-color="#F86B39"/>
<stop offset="0.307467" stop-color="#FFB196"/>
<stop offset="0.871674" stop-color="#FFB196"/>
<stop offset="1" stop-color="white"/>
</linearGradient>
<linearGradient id="paint6_linear_246_1603" x1="53.5" y1="42" x2="53.5" y2="94.9999" gradientUnits="userSpaceOnUse">
<stop stop-color="#F86B39"/>
<stop offset="0.307467" stop-color="#FFB196"/>
<stop offset="0.871674" stop-color="#FFB196"/>
<stop offset="1" stop-color="white"/>
</linearGradient>
<linearGradient id="paint7_linear_246_1603" x1="53.5" y1="42" x2="53.5" y2="94.9999" gradientUnits="userSpaceOnUse">
<stop stop-color="#F86B39"/>
<stop offset="0.307467" stop-color="#FFB196"/>
<stop offset="0.871674" stop-color="#FFB196"/>
<stop offset="1" stop-color="white"/>
</linearGradient>
<linearGradient id="paint8_linear_246_1603" x1="53.5" y1="42" x2="53.5" y2="94.9999" gradientUnits="userSpaceOnUse">
<stop stop-color="#F86B39"/>
<stop offset="0.307467" stop-color="#FFB196"/>
<stop offset="0.871674" stop-color="#FFB196"/>
<stop offset="1" stop-color="white"/>
</linearGradient>
<linearGradient id="paint9_linear_246_1603" x1="53.5" y1="42" x2="53.5" y2="94.9999" gradientUnits="userSpaceOnUse">
<stop stop-color="#F86B39"/>
<stop offset="0.307467" stop-color="#FFB196"/>
<stop offset="0.871674" stop-color="#FFB196"/>
<stop offset="1" stop-color="white"/>
</linearGradient>
<linearGradient id="paint10_linear_246_1603" x1="53.5" y1="42" x2="53.5" y2="94.9999" gradientUnits="userSpaceOnUse">
<stop stop-color="#F86B39"/>
<stop offset="0.307467" stop-color="#FFB196"/>
<stop offset="0.871674" stop-color="#FFB196"/>
<stop offset="1" stop-color="white"/>
</linearGradient>
<clipPath id="clip0_246_1603">
<rect width="87" height="100" fill="white" transform="translate(10 10)"/>
</clipPath>
</defs>
</svg>
